<svg xmlns="http://www.w3.org/2000/svg" viewBox="0 0 243.37 94.84"><defs><style>.cls-1{fill:#00aeef;}.cls-2,.cls-3{fill:none;stroke-width:0.75px;}.cls-2{stroke:#00aeef;stroke-linecap:round;stroke-linejoin:round;}.cls-3{stroke:#be1e2d;stroke-miterlimit:10;opacity:0.85;}</style></defs><title>logo_redblue</title><g id="_00" data-name="00"><path class="cls-1" d="M783.41,120.11a.31.31,0,0,1,.6-.14l2.81,11.27L789.66,120a.3.3,0,0,1,.37-.23.3.3,0,0,1,.21.37l-3.1,12.47a.28.28,0,0,1-.31.23.27.27,0,0,1-.29-.23Z" transform="translate(-634.52 -89.35)"/><path class="cls-1" d="M795.3,120.05a.31.31,0,0,1,.62,0v12.47c0,.21-.1.31-.31.31a.27.27,0,0,1-.31-.31Z" transform="translate(-634.52 -89.35)"/><path class="cls-1" d="M806.51,132.5c0,.21-.1.31-.31.31a.3.3,0,0,1-.29-.31v-3.32a2.24,2.24,0,0,0-2.44-2.5h-1.75v5.82c0,.21-.1.31-.31.31a.3.3,0,0,1-.29-.31V120a.3.3,0,0,1,.29-.29h2.06c2.08,0,3,1.07,3,3.45a3.94,3.94,0,0,1-.72,2.62,2,2,0,0,1-.79.58,2.73,2.73,0,0,1,.68.48,3.07,3.07,0,0,1,.85,2.31Zm-4.79-12.16v5.74h1.75c1.69,0,2.41-.79,2.41-2.89s-.7-2.85-2.41-2.85Z" transform="translate(-634.52 -89.35)"/><path class="cls-1" d="M817.77,119.74a.3.3,0,0,1,.31.29.27.27,0,0,1-.31.31H815V132.5a.32.32,0,0,1-.31.31.27.27,0,0,1-.31-.31V120.34h-2.83a.3.3,0,0,1-.29-.31.3.3,0,0,1,.29-.29Z" transform="translate(-634.52 -89.35)"/><path class="cls-1" d="M822.91,120a.3.3,0,0,1,.31-.29.3.3,0,0,1,.29.29v9.58a2.84,2.84,0,0,0,.68,2.17,2.22,2.22,0,0,0,2.62,0,2.84,2.84,0,0,0,.68-2.17V120a.3.3,0,0,1,.29-.29.3.3,0,0,1,.31.29v9.58a3.34,3.34,0,0,1-.83,2.58,2.43,2.43,0,0,1-1.75.62,2.39,2.39,0,0,1-1.73-.62,3.34,3.34,0,0,1-.87-2.58Z" transform="translate(-634.52 -89.35)"/><path class="cls-1" d="M840,132.46c.06.16-.08.31-.23.37h-.08a.27.27,0,0,1-.29-.23l-.87-3.76h-3.43l-.87,3.76c-.06.16-.21.29-.37.23a.3.3,0,0,1-.23-.37L836.5,120a.27.27,0,0,1,.29-.23.28.28,0,0,1,.31.23Zm-3.2-11.05-1.57,6.83h3.16Z" transform="translate(-634.52 -89.35)"/><path class="cls-1" d="M845.25,132.83a.27.27,0,0,1-.31-.31V120.05a.3.3,0,0,1,.31-.29.3.3,0,0,1,.29.29v12.18h4.09a.3.3,0,0,1,.31.29c0,.21-.1.31-.31.31Z" transform="translate(-634.52 -89.35)"/><path class="cls-1" d="M784.11,149.85v5.64h3.78a.3.3,0,0,1,.31.29c0,.21-.1.31-.31.31h-4.07a.27.27,0,0,1-.31-.31V143.32a.3.3,0,0,1,.31-.29h4.07a.3.3,0,0,1,.31.29.27.27,0,0,1-.31.31h-3.78v5.63h3.78a.27.27,0,0,1,.31.31.3.3,0,0,1-.31.29Z" transform="translate(-634.52 -89.35)"/><path class="cls-1" d="M797,149.54l2.87,6.11a.3.3,0,0,1-.16.41s-.06,0-.12,0a.3.3,0,0,1-.29-.17l-2.66-5.64L794,155.9a.29.29,0,0,1-.27.17c-.06,0-.12,0-.14,0a.3.3,0,0,1-.16-.41l2.89-6.11-2.89-6.09a.31.31,0,0,1,.16-.41.27.27,0,0,1,.41.14l2.66,5.64,2.66-5.64a.31.31,0,0,1,.56.27Z" transform="translate(-634.52 -89.35)"/><path class="cls-1" d="M804.9,143.32a.3.3,0,0,1,.31-.29h2.06c2.09,0,3,1.11,3,3.41s-.93,3.41-3,3.41h-1.75v5.93c0,.21-.1.31-.31.31s-.31-.1-.31-.31Zm.62.31v5.63h1.75c1.69,0,2.41-.8,2.41-2.81s-.7-2.81-2.41-2.81Z" transform="translate(-634.52 -89.35)"/><path class="cls-1" d="M816,149.85v5.64h3.78a.3.3,0,0,1,.31.29c0,.21-.1.31-.31.31H815.7a.27.27,0,0,1-.31-.31V143.32a.3.3,0,0,1,.31-.29h4.07a.3.3,0,0,1,.31.29.27.27,0,0,1-.31.31H816v5.63h3.78a.27.27,0,0,1,.31.31.3.3,0,0,1-.31.29Z" transform="translate(-634.52 -89.35)"/><path class="cls-1" d="M830.75,155.77c0,.21-.1.31-.31.31a.3.3,0,0,1-.29-.31v-3.32a2.24,2.24,0,0,0-2.44-2.5H826v5.82c0,.21-.1.31-.31.31a.3.3,0,0,1-.29-.31V143.3a.3.3,0,0,1,.29-.29h2.06c2.08,0,3,1.07,3,3.45a3.94,3.94,0,0,1-.72,2.62,2,2,0,0,1-.79.58,2.73,2.73,0,0,1,.68.48,3.07,3.07,0,0,1,.85,2.31ZM826,143.61v5.74h1.75c1.69,0,2.41-.79,2.41-2.89s-.7-2.85-2.41-2.85Z" transform="translate(-634.52 -89.35)"/><path class="cls-1" d="M836.08,143.32a.31.31,0,0,1,.62,0v12.47c0,.21-.1.31-.31.31a.27.27,0,0,1-.31-.31Z" transform="translate(-634.52 -89.35)"/><path class="cls-1" d="M842.46,149.85v5.64h3.78a.3.3,0,0,1,.31.29c0,.21-.1.31-.31.31h-4.07a.27.27,0,0,1-.31-.31V143.32a.3.3,0,0,1,.31-.29h4.07a.3.3,0,0,1,.31.29.27.27,0,0,1-.31.31h-3.78v5.63h3.78a.27.27,0,0,1,.31.31.3.3,0,0,1-.31.29Z" transform="translate(-634.52 -89.35)"/><path class="cls-1" d="M857.1,156.1a.25.25,0,0,1-.27-.19l-4.44-11v10.88c0,.21-.1.31-.31.31s-.31-.1-.31-.31V143.32a.31.31,0,0,1,.6-.1l4.42,11v-10.9a.31.31,0,0,1,.62,0v12.47a.28.28,0,0,1-.25.31Z" transform="translate(-634.52 -89.35)"/><path class="cls-1" d="M862.62,146.48a3.7,3.7,0,0,1,.91-2.81,3.06,3.06,0,0,1,3.74,0,3.7,3.7,0,0,1,.91,2.81.27.27,0,0,1-.31.31c-.21,0-.31-.1-.31-.31,0-1.94-.7-2.85-2.17-2.85s-2.17.91-2.17,2.85v6.15c0,1.94.78,2.87,2.17,2.87s2.17-.93,2.17-2.87c0-.21.1-.31.31-.31a.27.27,0,0,1,.31.31,3.67,3.67,0,0,1-.91,2.81,3,3,0,0,1-3.74,0,3.67,3.67,0,0,1-.91-2.81Z" transform="translate(-634.52 -89.35)"/><path class="cls-1" d="M873.79,149.85v5.64h3.78a.3.3,0,0,1,.31.29c0,.21-.1.31-.31.31H873.5a.27.27,0,0,1-.31-.31V143.32a.3.3,0,0,1,.31-.29h4.07a.3.3,0,0,1,.31.29.27.27,0,0,1-.31.31h-3.78v5.63h3.78a.27.27,0,0,1,.31.31.3.3,0,0,1-.31.29Z" transform="translate(-634.52 -89.35)"/><path class="cls-1" d="M742,136.29a.35.35,0,0,1-.41-.41,11.35,11.35,0,0,1,.59-3.86,8.36,8.36,0,0,1,2.33-3.37,7.18,7.18,0,0,0,2.66-5.47c0-2.07-.87-3.32-2.38-3.32s-2.4,1.07-2.4,3.42a.4.4,0,0,1-.38.41.35.35,0,0,1-.41-.41c0-2.73,1.07-4.21,3.19-4.21s3.19,1.74,3.19,4.11a7.94,7.94,0,0,1-2.94,6.08,8,8,0,0,0-2.63,6.23h5.16a.4.4,0,1,1,0,.79Z" transform="translate(-634.52 -89.35)"/><path class="cls-1" d="M754.66,123.62c0-2.94,1.23-4.55,3.65-4.55s3.68,1.58,3.68,4.55v8.1a4.83,4.83,0,0,1-1.2,3.7,3.93,3.93,0,0,1-4.93,0,4.83,4.83,0,0,1-1.2-3.7Zm.79,8.1c0,2.58.95,3.78,2.86,3.78s2.86-1.12,2.86-3.78v-8.1c0-2.63-.94-3.75-2.86-3.75s-2.86,1.2-2.86,3.75Z" transform="translate(-634.52 -89.35)"/><path class="cls-1" d="M743.68,140.74,742,142.84a.4.4,0,0,1-.56.05.39.39,0,0,1-.05-.59l2.43-2.94a.4.4,0,0,1,.72.26V156c0,.28-.13.41-.41.41s-.41-.13-.41-.41Z" transform="translate(-634.52 -89.35)"/><path class="cls-1" d="M758.93,140h-7.25a.4.4,0,0,1-.38-.41.39.39,0,0,1,.38-.38h7.84a.4.4,0,0,1,.38.56l-6.85,16.4a.38.38,0,0,1-.38.26c-.08,0-.13,0-.15,0a.4.4,0,0,1-.2-.54Z" transform="translate(-634.52 -89.35)"/><line class="cls-2" x1="138.11" y1="68.48" x2="138.06" y2="28.36"/></g><g id="_01" data-name="01"><path class="cls-3" d="M721.52,142.61l24.63,38a1.62,1.62,0,0,1-1.35,2.51l-48.07.42a1.62,1.62,0,0,1-1.43-2.41l23.44-38.4A1.62,1.62,0,0,1,721.52,142.61Z" transform="translate(-634.52 -89.35)"/><path class="cls-3" d="M720.88,129.63l24-37.43a1.6,1.6,0,0,0-1.31-2.47l-45,0a1.76,1.76,0,0,0-1.54,2.61l21.08,37.16A1.58,1.58,0,0,0,720.88,129.63Z" transform="translate(-634.52 -89.35)"/><path class="cls-3" d="M712.4,137.27a1.12,1.12,0,0,1-.06.24,1.73,1.73,0,0,1-.22.43l-27.36,45a1.79,1.79,0,0,1-3.06-.19l-43.81-90a1.78,1.78,0,0,1,.5-2.26,1.74,1.74,0,0,1,.9-.36h46.09a1.79,1.79,0,0,1,1.57.93l25.27,45A1.75,1.75,0,0,1,712.4,137.27Z" transform="translate(-634.52 -89.35)"/><path class="cls-2" d="M718.74,142.71l24.63,38a1.62,1.62,0,0,1-1.35,2.51l-48.07.42a1.62,1.62,0,0,1-1.43-2.41L716,142.8A1.62,1.62,0,0,1,718.74,142.71Z" transform="translate(-634.52 -89.35)"/><path class="cls-2" d="M718.1,129.72l24-37.43a1.6,1.6,0,0,0-1.31-2.47l-45,0a1.76,1.76,0,0,0-1.54,2.61l21.08,37.16A1.58,1.58,0,0,0,718.1,129.72Z" transform="translate(-634.52 -89.35)"/><path class="cls-2" d="M709.62,137.37a1.12,1.12,0,0,1-.06.24,1.73,1.73,0,0,1-.22.43L682,183a1.79,1.79,0,0,1-3.06-.19l-43.81-90a1.78,1.78,0,0,1,.5-2.26,1.74,1.74,0,0,1,.9-.36h46.09a1.79,1.79,0,0,1,1.57.93l25.27,45A1.75,1.75,0,0,1,709.62,137.37Z" transform="translate(-634.52 -89.35)"/></g></svg>