<?xml version="1.0" encoding="utf-8"?>
<!-- Generator: Adobe Illustrator 21.1.0, SVG Export Plug-In . SVG Version: 6.00 Build 0)  -->
<!DOCTYPE svg PUBLIC "-//W3C//DTD SVG 1.1//EN" "http://www.w3.org/Graphics/SVG/1.1/DTD/svg11.dtd">
<svg version="1.1" id="Layer_1" xmlns="http://www.w3.org/2000/svg" xmlns:xlink="http://www.w3.org/1999/xlink" x="0px" y="0px"
	 viewBox="0 0 462 392.3" style="enable-background:new 0 0 462 392.3;" xml:space="preserve">
<style type="text/css">
	.st0{opacity:0.85;fill:none;stroke:#BE1E2D;stroke-width:0.75;stroke-miterlimit:10;enable-background:new    ;}
	.st1{fill:none;stroke:#00AEEF;stroke-width:0.75;stroke-linecap:round;stroke-linejoin:round;}
</style>
<title>Logo_Lee</title>
<g id="_01">
	<path class="st0" d="M356.6,219.6l99,152.7c2,3,1.1,7-1.9,9c-1.1,0.7-2.3,1.1-3.6,1.1L257,384.1c-3.6,0-6.5-2.9-6.6-6.4
		c0-1.1,0.3-2.2,0.8-3.2l94.2-154.3c1.7-3.2,5.7-4.3,8.8-2.6C355.2,217.9,356,218.7,356.6,219.6z"/>
	<path class="st0" d="M354.1,167.4L450.5,17c1.9-3,1.1-7-1.9-8.9c-1-0.7-2.2-1-3.4-1H264.4c-3.9,0-7.1,3.2-7.1,7.1
		c0,1.2,0.3,2.4,0.9,3.4l84.7,149.3c1.5,3.2,5.3,4.5,8.5,2.9C352.5,169.3,353.4,168.5,354.1,167.4z"/>
	<path class="st0" d="M320,198.1c0,0.3-0.1,0.7-0.2,1c-0.2,0.6-0.5,1.2-0.9,1.7l-110,180.8c-2.3,3.3-6.7,4.1-10,1.8
		c-1-0.7-1.7-1.6-2.3-2.6L20.6,19.2c-1.7-3.1-0.8-7,2-9.1c1-0.8,2.3-1.3,3.6-1.4h185.2c2.6,0,5,1.4,6.3,3.7l101.6,180.8
		C320.1,194.7,320.3,196.5,320,198.1z"/>
	<path class="st1" d="M345.5,220l99,152.7c2,3,1.1,7-1.9,9c-1.1,0.7-2.3,1.1-3.6,1.1l-193.2,1.7c-3.6,0-6.5-2.9-6.6-6.4
		c0-1.1,0.3-2.2,0.8-3.2l94.4-154.4c1.8-3.1,5.8-4.1,8.9-2.3C344.2,218.5,344.9,219.2,345.5,220z"/>
	<path class="st1" d="M342.9,167.8l96.4-150.4c1.9-3,1.1-7-1.9-8.9c-1-0.7-2.2-1-3.4-1H253.2c-3.9,0-7.1,3.2-7.1,7.1
		c0,1.2,0.3,2.4,0.9,3.4l84.7,149.3c1.5,3.2,5.3,4.5,8.5,2.9C341.3,169.7,342.3,168.8,342.9,167.8z"/>
	<path class="st1" d="M308.8,198.5c0,0.3-0.1,0.7-0.2,1c-0.2,0.6-0.5,1.2-0.9,1.7L197.8,381.9c-2.3,3.3-6.7,4.1-10,1.8
		c-1-0.7-1.7-1.6-2.3-2.6L9.5,19.4c-1.7-3.1-0.8-7,2-9.1c1-0.8,2.3-1.3,3.6-1.4h185.2c2.6,0,5,1.4,6.3,3.7l101.6,180.8
		C309,195,309.2,196.8,308.8,198.5z"/>
</g>
</svg>
