<?xml version="1.0" encoding="iso-8859-1"?>
<!-- Generator: Adobe Illustrator 18.0.0, SVG Export Plug-In . SVG Version: 6.00 Build 0)  -->
<!DOCTYPE svg PUBLIC "-//W3C//DTD SVG 1.1//EN" "http://www.w3.org/Graphics/SVG/1.1/DTD/svg11.dtd">
<svg version="1.1" id="Layer_1" xmlns="http://www.w3.org/2000/svg" xmlns:xlink="http://www.w3.org/1999/xlink" x="0px" y="0px"
	 viewBox="0 0 141.386 111.276" style="enable-background:new 0 0 141.386 111.276;" xml:space="preserve">
<g>
	<defs>
		<rect id="SVGID_1_" x="-307.073" y="-0.101" width="755.956" height="499.261"/>
	</defs>
	<defs>
		<path id="SVGID_2_" d="M0,0c10.016-0.017,20.034,0.01,30.05-0.014c4.458,16.411,8.881,32.833,13.318,49.25
			c-0.178,0.236-0.352,0.483-0.425,0.774c-4.575,17.007-9.191,34.005-13.774,51.011c-0.319,1.106-0.55,2.238-0.959,3.316
			c-0.689-2.221-1.224-4.488-1.854-6.726C19.054,70.601,11.758,43.59,4.454,16.582C2.98,11.052,1.44,5.539,0,0L0,0L0,0z M0,0"/>
	</defs>
	<defs>
		<rect id="SVGID_3_" x="-307.026" y="-0.101" width="755.956" height="499.261"/>
	</defs>
	<clipPath id="SVGID_4_">
		<use xlink:href="#SVGID_1_"  style="overflow:visible;"/>
	</clipPath>
	<clipPath id="SVGID_5_" style="clip-path:url(#SVGID_4_);">
		<use xlink:href="#SVGID_2_"  style="overflow:visible;"/>
	</clipPath>
	<clipPath id="SVGID_6_" style="clip-path:url(#SVGID_5_);">
		<use xlink:href="#SVGID_3_"  style="overflow:visible;"/>
	</clipPath>
	<rect x="-1.962" y="-1.976" style="clip-path:url(#SVGID_6_);fill:#5E6771;" width="47.293" height="108.276"/>
</g>
<g>
	<defs>
		<rect id="SVGID_7_" x="-307.073" y="-0.101" width="755.956" height="499.261"/>
	</defs>
	<defs>
		<path id="SVGID_8_" d="M59.151,3.504c0.334-1.17,0.615-2.354,0.97-3.518c8.164,6.839,16.408,13.585,24.556,20.441
			c-0.317,1.111-0.597,2.233-0.909,3.348c-0.867-0.533-1.603-1.238-2.388-1.879c-7.092-5.891-14.185-11.781-21.275-17.674
			C59.795,3.971,59.473,3.737,59.151,3.504L59.151,3.504L59.151,3.504z M59.151,3.504"/>
	</defs>
	<defs>
		<rect id="SVGID_9_" x="-307.026" y="-0.101" width="755.956" height="499.261"/>
	</defs>
	<clipPath id="SVGID_10_">
		<use xlink:href="#SVGID_7_"  style="overflow:visible;"/>
	</clipPath>
	<clipPath id="SVGID_11_" style="clip-path:url(#SVGID_10_);">
		<use xlink:href="#SVGID_8_"  style="overflow:visible;"/>
	</clipPath>
	<clipPath id="SVGID_12_" style="clip-path:url(#SVGID_11_);">
		<use xlink:href="#SVGID_9_"  style="overflow:visible;"/>
	</clipPath>
	<rect x="57.188" y="-1.976" style="clip-path:url(#SVGID_12_);fill:#0EA1C7;" width="29.451" height="27.714"/>
</g>
<g>
	<defs>
		<rect id="SVGID_13_" x="-307.073" y="-0.101" width="755.956" height="499.261"/>
	</defs>
	<defs>
		<path id="SVGID_14_" d="M60.12-0.014c13.637,0.03,27.275-0.019,40.91,0.024c1.231,0.905,2.364,1.939,3.553,2.901
			c12.272,10.18,24.526,20.381,36.804,30.554c-0.064,0.293-0.122,0.592-0.223,0.877c-2.949,8.562-5.819,17.153-8.792,25.706
			c-1.614-1.448-3.328-2.778-4.98-4.181c-9.005-7.457-17.969-14.965-27-22.393c-5.253-4.33-10.489-8.683-15.715-13.046
			C76.528,13.571,68.284,6.825,60.12-0.014L60.12-0.014L60.12-0.014z M60.12-0.014"/>
	</defs>
	<defs>
		<rect id="SVGID_15_" x="-307.026" y="-0.101" width="755.956" height="499.261"/>
	</defs>
	<clipPath id="SVGID_16_">
		<use xlink:href="#SVGID_13_"  style="overflow:visible;"/>
	</clipPath>
	<clipPath id="SVGID_17_" style="clip-path:url(#SVGID_16_);">
		<use xlink:href="#SVGID_14_"  style="overflow:visible;"/>
	</clipPath>
	<clipPath id="SVGID_18_" style="clip-path:url(#SVGID_17_);">
		<use xlink:href="#SVGID_15_"  style="overflow:visible;"/>
	</clipPath>
	<rect x="58.158" y="-1.976" style="clip-path:url(#SVGID_18_);fill:#5E6771;" width="85.191" height="63.987"/>
</g>
<g>
	<defs>
		<rect id="SVGID_19_" x="-307.073" y="-0.101" width="755.956" height="499.261"/>
	</defs>
	<defs>
		<path id="SVGID_20_" d="M59.151,3.504c0.322,0.233,0.644,0.467,0.954,0.719c7.09,5.893,14.183,11.783,21.275,17.674
			c0.785,0.641,1.521,1.346,2.388,1.879c-0.856,3.243-1.784,6.469-2.602,9.723c-0.395,1.884-1.025,3.705-1.471,5.577
			c-0.992,3.644-1.974,7.291-2.957,10.939c-0.597,2.028-1.001,4.11-1.668,6.117c-7.856-7.555-15.708-15.116-23.576-22.659
			c-0.134-0.142-0.226-0.313-0.313-0.484C53.85,23.164,56.503,13.335,59.151,3.504L59.151,3.504L59.151,3.504z M59.151,3.504"/>
	</defs>
	<defs>
		<rect id="SVGID_21_" x="-307.026" y="-0.101" width="755.956" height="499.261"/>
	</defs>
	<clipPath id="SVGID_22_">
		<use xlink:href="#SVGID_19_"  style="overflow:visible;"/>
	</clipPath>
	<clipPath id="SVGID_23_" style="clip-path:url(#SVGID_22_);">
		<use xlink:href="#SVGID_20_"  style="overflow:visible;"/>
	</clipPath>
	<clipPath id="SVGID_24_" style="clip-path:url(#SVGID_23_);">
		<use xlink:href="#SVGID_21_"  style="overflow:visible;"/>
	</clipPath>
	<rect x="49.217" y="1.541" style="clip-path:url(#SVGID_24_);fill:#06B0E0;" width="36.513" height="56.552"/>
</g>
<g>
	<defs>
		<rect id="SVGID_25_" x="-307.073" y="-0.101" width="755.956" height="499.261"/>
	</defs>
	<defs>
		<path id="SVGID_26_" d="M45.089,55.518c2.047-7.504,4.073-15.017,6.091-22.53c0.087,0.172,0.179,0.342,0.313,0.484
			c7.868,7.542,15.72,15.104,23.576,22.659c1.086,1.063,2.199,2.101,3.292,3.157c0.266,0.257,0.533,0.516,0.799,0.776
			c15.783,15.161,31.55,30.338,47.335,45.496c1.925,1.931,3.984,3.728,5.861,5.704c-12.782,0.024-25.566,0.005-38.348,0.01
			c-8.942-8.638-17.938-17.221-26.871-25.866c-7.085-6.883-14.242-13.692-21.346-20.556c-0.853-0.8-1.668-1.643-2.561-2.4
			C43.876,60.149,44.544,57.848,45.089,55.518L45.089,55.518L45.089,55.518z M45.089,55.518"/>
	</defs>
	<defs>
		<rect id="SVGID_27_" x="-307.026" y="-0.101" width="755.956" height="499.261"/>
	</defs>
	<clipPath id="SVGID_28_">
		<use xlink:href="#SVGID_25_"  style="overflow:visible;"/>
	</clipPath>
	<clipPath id="SVGID_29_" style="clip-path:url(#SVGID_28_);">
		<use xlink:href="#SVGID_26_"  style="overflow:visible;"/>
	</clipPath>
	<clipPath id="SVGID_30_" style="clip-path:url(#SVGID_29_);">
		<use xlink:href="#SVGID_27_"  style="overflow:visible;"/>
	</clipPath>
	<rect x="41.268" y="31.025" style="clip-path:url(#SVGID_30_);fill:#5E6771;" width="93.05" height="82.213"/>
</g>
<g>
	<defs>
		<rect id="SVGID_31_" x="-307.073" y="-0.101" width="755.956" height="499.261"/>
	</defs>
	<defs>
		<path id="SVGID_32_" d="M100.391,33.474c9.031,7.428,17.995,14.936,27,22.393c1.652,1.403,3.367,2.733,4.98,4.181
			c-1.722,0.005-3.441,0.016-5.161-0.003c-0.484-0.569-1.086-1.012-1.657-1.485c-9.147-7.596-18.288-15.198-27.442-22.787
			c-0.855-0.767-1.843-1.389-2.59-2.273C97.145,33.481,98.767,33.521,100.391,33.474L100.391,33.474L100.391,33.474z
			 M100.391,33.474"/>
	</defs>
	<defs>
		<rect id="SVGID_33_" x="-307.026" y="-0.101" width="755.956" height="499.261"/>
	</defs>
	<clipPath id="SVGID_34_">
		<use xlink:href="#SVGID_31_"  style="overflow:visible;"/>
	</clipPath>
	<clipPath id="SVGID_35_" style="clip-path:url(#SVGID_34_);">
		<use xlink:href="#SVGID_32_"  style="overflow:visible;"/>
	</clipPath>
	<clipPath id="SVGID_36_" style="clip-path:url(#SVGID_35_);">
		<use xlink:href="#SVGID_33_"  style="overflow:visible;"/>
	</clipPath>
	<rect x="93.558" y="31.512" style="clip-path:url(#SVGID_36_);fill:#0EA1C7;" width="40.776" height="30.507"/>
</g>
<g>
	<defs>
		<rect id="SVGID_37_" x="-307.073" y="-0.101" width="755.956" height="499.261"/>
	</defs>
	<defs>
		<path id="SVGID_38_" d="M81.165,33.498c1.393-0.005,2.785-0.002,4.179-0.002c-2.32,8.6-4.629,17.201-6.984,25.791
			c-1.093-1.056-2.205-2.094-3.292-3.157c0.667-2.007,1.071-4.089,1.668-6.117c0.983-3.648,1.965-7.294,2.957-10.939
			C80.14,37.204,80.77,35.382,81.165,33.498L81.165,33.498L81.165,33.498z M81.165,33.498"/>
	</defs>
	<defs>
		<rect id="SVGID_39_" x="-307.026" y="-0.101" width="755.956" height="499.261"/>
	</defs>
	<clipPath id="SVGID_40_">
		<use xlink:href="#SVGID_37_"  style="overflow:visible;"/>
	</clipPath>
	<clipPath id="SVGID_41_" style="clip-path:url(#SVGID_40_);">
		<use xlink:href="#SVGID_38_"  style="overflow:visible;"/>
	</clipPath>
	<clipPath id="SVGID_42_" style="clip-path:url(#SVGID_41_);">
		<use xlink:href="#SVGID_39_"  style="overflow:visible;"/>
	</clipPath>
	<rect x="73.107" y="31.533" style="clip-path:url(#SVGID_42_);fill:#0EA1C7;" width="14.2" height="29.717"/>
</g>
<g>
	<defs>
		<rect id="SVGID_43_" x="-307.073" y="-0.101" width="755.956" height="499.261"/>
	</defs>
	<defs>
		<path id="SVGID_44_" d="M85.345,33.497c3.391,0.002,6.783-0.005,10.176,0.003c0.747,0.884,1.735,1.505,2.59,2.273
			c9.154,7.589,18.295,15.191,27.442,22.787c0.571,0.472,1.173,0.915,1.657,1.485c-16.016,0.028-32.034-0.01-48.05,0.019
			c-0.266-0.26-0.533-0.519-0.799-0.776C80.716,50.698,83.024,42.096,85.345,33.497L85.345,33.497L85.345,33.497z M85.345,33.497"/>
	</defs>
	<defs>
		<rect id="SVGID_45_" x="-307.026" y="-0.101" width="755.956" height="499.261"/>
	</defs>
	<clipPath id="SVGID_46_">
		<use xlink:href="#SVGID_43_"  style="overflow:visible;"/>
	</clipPath>
	<clipPath id="SVGID_47_" style="clip-path:url(#SVGID_46_);">
		<use xlink:href="#SVGID_44_"  style="overflow:visible;"/>
	</clipPath>
	<clipPath id="SVGID_48_" style="clip-path:url(#SVGID_47_);">
		<use xlink:href="#SVGID_45_"  style="overflow:visible;"/>
	</clipPath>
	<rect x="76.398" y="31.533" style="clip-path:url(#SVGID_48_);fill:#06B0E0;" width="52.774" height="30.493"/>
</g>
<g>
	<defs>
		<rect id="SVGID_49_" x="-307.073" y="-0.101" width="755.956" height="499.261"/>
	</defs>
	<defs>
		<path id="SVGID_50_" d="M42.943,50.011c0.073-0.292,0.247-0.538,0.425-0.774c0.583,2.091,1.112,4.197,1.722,6.282
			c-0.545,2.33-1.213,4.631-1.859,6.935c-0.376,1.34-0.757,2.679-1.077,4.033c-4.009,14.936-8.061,29.861-12.096,44.789
			c-0.62-2.309-1.302-4.615-1.847-6.938c0.409-1.078,0.641-2.21,0.959-3.316C33.752,84.016,38.368,67.017,42.943,50.011
			L42.943,50.011L42.943,50.011z M42.943,50.011"/>
	</defs>
	<defs>
		<rect id="SVGID_51_" x="-307.026" y="-0.101" width="755.956" height="499.261"/>
	</defs>
	<clipPath id="SVGID_52_">
		<use xlink:href="#SVGID_49_"  style="overflow:visible;"/>
	</clipPath>
	<clipPath id="SVGID_53_" style="clip-path:url(#SVGID_52_);">
		<use xlink:href="#SVGID_50_"  style="overflow:visible;"/>
	</clipPath>
	<clipPath id="SVGID_54_" style="clip-path:url(#SVGID_53_);">
		<use xlink:href="#SVGID_51_"  style="overflow:visible;"/>
	</clipPath>
	<rect x="26.247" y="47.274" style="clip-path:url(#SVGID_54_);fill:#495055;" width="20.805" height="65.965"/>
</g>
<g>
	<defs>
		<rect id="SVGID_55_" x="-307.073" y="-0.101" width="755.956" height="499.261"/>
	</defs>
	<defs>
		<path id="SVGID_56_" d="M43.23,62.453c0.893,0.757,1.708,1.599,2.561,2.4c7.104,6.864,14.261,13.673,21.346,20.556
			c-0.399,1.255-0.688,2.542-1.062,3.806c-1.125-0.946-2.071-2.082-3.212-3.011c-1.36-1.252-2.627-2.599-3.974-3.863
			c-1.285-1.08-2.418-2.32-3.628-3.478c-1.064-1.089-2.247-2.052-3.307-3.144c-1.18-1.132-2.296-2.334-3.546-3.391
			c-1.372-1.3-2.675-2.67-4.058-3.957c-0.771-0.587-1.34-1.41-2.198-1.884C42.473,65.132,42.854,63.793,43.23,62.453L43.23,62.453
			L43.23,62.453z M43.23,62.453"/>
	</defs>
	<defs>
		<rect id="SVGID_57_" x="-307.026" y="-0.101" width="755.956" height="499.261"/>
	</defs>
	<clipPath id="SVGID_58_">
		<use xlink:href="#SVGID_55_"  style="overflow:visible;"/>
	</clipPath>
	<clipPath id="SVGID_59_" style="clip-path:url(#SVGID_58_);">
		<use xlink:href="#SVGID_56_"  style="overflow:visible;"/>
	</clipPath>
	<clipPath id="SVGID_60_" style="clip-path:url(#SVGID_59_);">
		<use xlink:href="#SVGID_57_"  style="overflow:visible;"/>
	</clipPath>
	<rect x="40.19" y="60.49" style="clip-path:url(#SVGID_60_);fill:#0EA1C7;" width="28.909" height="30.687"/>
</g>
<g>
	<defs>
		<rect id="SVGID_61_" x="-307.073" y="-0.101" width="755.956" height="499.261"/>
	</defs>
	<defs>
		<path id="SVGID_62_" d="M42.153,66.486c0.858,0.474,1.427,1.297,2.198,1.884c1.382,1.287,2.686,2.657,4.058,3.957
			c1.25,1.057,2.366,2.259,3.546,3.391c1.06,1.092,2.244,2.056,3.307,3.144c1.21,1.158,2.343,2.398,3.628,3.478
			c1.347,1.264,2.615,2.611,3.974,3.863c1.14,0.929,2.087,2.064,3.212,3.011c-1.969,7.355-3.972,14.701-5.951,22.054
			c-10.021,0.014-20.044,0-30.067,0.007C34.092,96.347,38.144,81.422,42.153,66.486L42.153,66.486L42.153,66.486z M42.153,66.486"/>
	</defs>
	<defs>
		<rect id="SVGID_63_" x="-307.026" y="-0.101" width="755.956" height="499.261"/>
	</defs>
	<clipPath id="SVGID_64_">
		<use xlink:href="#SVGID_61_"  style="overflow:visible;"/>
	</clipPath>
	<clipPath id="SVGID_65_" style="clip-path:url(#SVGID_64_);">
		<use xlink:href="#SVGID_62_"  style="overflow:visible;"/>
	</clipPath>
	<clipPath id="SVGID_66_" style="clip-path:url(#SVGID_65_);">
		<use xlink:href="#SVGID_63_"  style="overflow:visible;"/>
	</clipPath>
	<rect x="28.094" y="64.524" style="clip-path:url(#SVGID_66_);fill:#06B0E0;" width="39.943" height="48.714"/>
</g>
</svg>
