<?xml version="1.0" encoding="utf-8"?>
<!-- Generator: Adobe Illustrator 21.1.0, SVG Export Plug-In . SVG Version: 6.00 Build 0)  -->
<!DOCTYPE svg PUBLIC "-//W3C//DTD SVG 1.1//EN" "http://www.w3.org/Graphics/SVG/1.1/DTD/svg11.dtd">
<svg version="1.1" id="Layer_1" xmlns="http://www.w3.org/2000/svg" xmlns:xlink="http://www.w3.org/1999/xlink" x="0px" y="0px"
	 viewBox="0 0 813.9 770.1" style="enable-background:new 0 0 813.9 770.1;" xml:space="preserve">
<style type="text/css">
	.st0{fill:#5D6771;}
	.st1{fill:#03A2C7;}
	.st2{fill:#01B2E3;}
	.st3{fill:#495055;}
	.st4{fill:#00AEEF;}
</style>
<g>
	<path class="st0" d="M1.6,0.1C59.2,0,116.7,0.1,174.3,0c25.6,94.5,51,189.1,76.5,283.7c-1,1.4-2,2.8-2.4,4.5
		c-26.3,98-52.8,195.9-79.1,293.8c-1.8,6.4-3.2,12.9-5.5,19.1c-4-12.8-7-25.8-10.7-38.7C111.1,406.7,69.2,251.1,27.2,95.6
		C18.8,63.7,9.9,32,1.6,0.1L1.6,0.1z"/>
	<path class="st1" d="M341.5,20.3C343.4,13.5,345,6.7,347,0c46.9,39.4,94.3,78.2,141.1,117.7c-1.8,6.4-3.4,12.9-5.2,19.3
		c-5-3.1-9.2-7.1-13.7-10.8c-40.7-33.9-81.5-67.8-122.2-101.8C345.2,23,343.3,21.6,341.5,20.3L341.5,20.3z"/>
	<path class="st0" d="M347,0c78.3,0.2,156.7-0.1,235,0.1c7.1,5.2,13.6,11.2,20.4,16.7c70.5,58.6,140.9,117.4,211.4,176
		c-0.4,1.7-0.7,3.4-1.3,5c-16.9,49.3-33.4,98.8-50.5,148.1c-9.3-8.3-19.1-16-28.6-24.1c-51.7-42.9-103.2-86.2-155.1-129
		c-30.2-24.9-60.3-50-90.3-75.1C441.3,78.2,393.9,39.4,347,0L347,0z"/>
	<path class="st2" d="M341.5,20.3c1.9,1.3,3.7,2.7,5.5,4.1c40.7,33.9,81.5,67.9,122.2,101.8c4.5,3.7,8.7,7.8,13.7,10.8
		c-4.9,18.7-10.2,37.3-15,56c-2.3,10.8-5.9,21.3-8.5,32.1c-5.7,21-11.3,42-17,63c-3.4,11.7-5.8,23.7-9.6,35.2
		c-45.1-43.5-90.2-87.1-135.4-130.5c-0.8-0.8-1.3-1.8-1.8-2.8C311,133.5,326.2,76.9,341.5,20.3L341.5,20.3z"/>
	<path class="st0" d="M260.7,319.8c11.8-43.2,23.4-86.5,35-129.8c0.5,1,1,2,1.8,2.8c45.2,43.4,90.3,87,135.4,130.5
		c6.2,6.1,12.6,12.1,18.9,18.2c1.5,1.5,3.1,3,4.6,4.5c90.7,87.3,181.3,174.7,271.9,262c11.1,11.1,22.9,21.5,33.7,32.8
		c-73.4,0.1-146.9,0-220.3,0.1c-51.4-49.8-103-99.2-154.4-149c-40.7-39.6-81.8-78.9-122.6-118.4c-4.9-4.6-9.6-9.5-14.7-13.8
		C253.7,346.5,257.6,333.2,260.7,319.8L260.7,319.8z"/>
	<path class="st1" d="M578.4,192.9c51.9,42.8,103.4,86,155.1,129c9.5,8.1,19.3,15.7,28.6,24.1c-9.9,0-19.8,0.1-29.6,0
		c-2.8-3.3-6.2-5.8-9.5-8.5c-52.6-43.8-105.1-87.5-157.7-131.2c-4.9-4.4-10.6-8-14.9-13.1C559.7,192.9,569.1,193.1,578.4,192.9
		L578.4,192.9z"/>
	<path class="st1" d="M467.9,193c8,0,16,0,24,0c-13.3,49.5-26.6,99.1-40.1,148.5c-6.3-6.1-12.7-12.1-18.9-18.2
		c3.8-11.6,6.2-23.5,9.6-35.2c5.7-21,11.3-42,17-63C462,214.3,465.7,203.9,467.9,193L467.9,193z"/>
	<path class="st2" d="M491.9,193c19.5,0,39,0,58.5,0c4.3,5.1,10,8.7,14.9,13.1c52.6,43.7,105.1,87.5,157.7,131.2
		c3.3,2.7,6.7,5.3,9.5,8.5c-92,0.2-184-0.1-276,0.1c-1.5-1.5-3.1-3-4.6-4.5C465.3,292.1,478.6,242.5,491.9,193L491.9,193z"/>
	<path class="st3" d="M248.4,288.1c0.4-1.7,1.4-3.1,2.4-4.5c3.3,12,6.4,24.2,9.9,36.2c-3.1,13.4-7,26.7-10.7,39.9
		c-2.2,7.7-4.4,15.4-6.2,23.2c-23,86-46.3,172-69.5,258c-3.6-13.3-7.5-26.6-10.6-40c2.4-6.2,3.7-12.7,5.5-19.1
		C195.6,484,222.1,386.1,248.4,288.1L248.4,288.1z"/>
	<path class="st1" d="M250,359.8c5.1,4.4,9.8,9.2,14.7,13.8c40.8,39.5,81.9,78.8,122.6,118.4c-2.3,7.2-4,14.6-6.1,21.9
		c-6.5-5.5-11.9-12-18.5-17.3c-7.8-7.2-15.1-15-22.8-22.2c-7.4-6.2-13.9-13.4-20.8-20c-6.1-6.3-12.9-11.8-19-18.1
		c-6.8-6.5-13.2-13.4-20.4-19.5c-7.9-7.5-15.4-15.4-23.3-22.8c-4.4-3.4-7.7-8.1-12.6-10.9C245.7,375.2,247.8,367.5,250,359.8
		L250,359.8z"/>
	<path class="st2" d="M243.8,383c4.9,2.7,8.2,7.5,12.6,10.9c7.9,7.4,15.4,15.3,23.3,22.8c7.2,6.1,13.6,13,20.4,19.5
		c6.1,6.3,12.9,11.8,19,18.1c6.9,6.7,13.5,13.8,20.8,20c7.7,7.3,15,15,22.8,22.2c6.6,5.4,12,11.9,18.5,17.3
		c-11.3,42.4-22.8,84.7-34.2,127c-57.6,0.1-115.2,0-172.7,0C197.5,555,220.8,469,243.8,383L243.8,383z"/>
	<path class="st4" d="M28.4,719c1.2,0,2.4,0,3.5,0c-4.2,13.1-9.6,25.8-14.1,38.8c-0.8,0.1-2.5,0.2-3.3,0.2c-5-13-9.9-26-14.5-39.1
		c1,0,2.9,0.1,3.8,0.1c4,11.4,8,22.8,12.3,34.1C20.2,741.8,24.2,730.3,28.4,719L28.4,719z"/>
	<path class="st4" d="M611.2,719c1.1,0,2.3-0.1,3.4-0.1c0.5,6.8,0,13.7,0.3,20.5c6.2-6.4,12.2-13.1,18.5-19.5c1.2-1.6,3.5-0.8,5.2-1
		c-5.1,6.1-11,11.4-16,17.5c5.7,7.2,11.6,14.2,17.2,21.4c-1,0-3.1,0.1-4.2,0.1c-5-6.3-10.3-12.4-15.2-18.8c-2.1,1.2-3.8,2.9-5.5,4.5
		c-0.2,4.7,0.2,9.4-0.2,14c-1.2,0.2-2.4,0.2-3.6,0.3C611.2,745,611.1,732,611.2,719L611.2,719z"/>
	<path class="st4" d="M38.4,719c0.9,0,2.7,0.1,3.6,0.1c0,12.9,0,25.9,0,38.8c-0.9,0-2.7,0.1-3.6,0.1C38.3,745,38.3,732,38.4,719
		L38.4,719z"/>
	<path class="st4" d="M81.2,719c10-0.2,20-0.1,30,0c-0.1,0.7-0.2,2-0.3,2.6c-4.2,0.9-8.7,0.1-13,0.4c0,11.9,0,23.9,0,35.8
		c-0.9,0-2.7,0.1-3.6,0.1c-0.1-12,0-23.9,0-35.9c-4.4-0.1-8.9,0-13.3-0.1C81,721.3,81.1,719.8,81.2,719L81.2,719z"/>
	<path class="st4" d="M116.5,719c0.9,0,2.7,0,3.6,0c0.1,9.5-0.1,19,0.1,28.5c0.8,9.1,14.9,10.7,19.1,3.4c1.1-2.3,1.3-4.9,1.3-7.4
		c0-8.2,0-16.4,0-24.6c0.9,0,2.6,0.1,3.4,0.1c0,8.8,0,17.6,0,26.4c0,2.8-0.7,5.7-2.4,8c-6.3,8.5-23,6.3-24.9-4.9
		C116.1,738.7,116.6,728.8,116.5,719L116.5,719z"/>
	<path class="st4" d="M186.4,719c0.9,0,2.7,0.1,3.7,0.1c0,12-0.1,23.9,0,35.9c6.3,0,12.7,0,19,0c0,0.7,0,2.2,0,3
		c-7.6,0-15.2,0-22.7,0C186.3,744.9,186.3,732,186.4,719L186.4,719z"/>
	<path class="st4" d="M262.7,719.1c8.1-0.2,16.3-0.1,24.4-0.1c0,0.7,0,2.2,0,3c-6.9,0.1-13.8,0-20.7,0.1c0,4.7,0,9.4-0.1,14.2
		c6,0.1,12,0.1,17.9,0c0.1,1,0.2,2,0.3,3c-6.1,0.2-12.1,0-18.2,0.2c0,5.2,0,10.3,0,15.5c7,0.1,13.9,0,20.9,0.1c0,0.7,0,2.2,0,3
		c-8.2,0-16.4,0.1-24.5-0.1C262.8,744.9,262.7,732,262.7,719.1L262.7,719.1z"/>
	<path class="st4" d="M328.1,719.1c0.8,0,2.5-0.2,3.4-0.2c0.2,12,0,24,0.1,36c6.3,0.1,12.7,0,19,0c0.1,0.7,0.3,2.2,0.3,3
		c-7.6,0.1-15.3,0.2-22.9,0C328.1,744.9,328,732,328.1,719.1L328.1,719.1z"/>
	<path class="st4" d="M357.3,719c0.9,0,2.7,0.1,3.6,0.1c0,12.9,0,25.9,0,38.8c-0.9,0-2.7,0.1-3.6,0.1C357.3,745,357.3,732,357.3,719
		L357.3,719z"/>
	<path class="st4" d="M366.9,719c9.9-0.1,19.8-0.2,29.7,0c0.1,0.7,0.2,2.2,0.2,3c-4.3,0.1-8.7,0.1-13,0c-0.6,11.9-0.1,23.9-0.2,35.8
		c-0.9,0.1-2.6,0.2-3.5,0.2c-0.3-12,0-24-0.2-36c-4.3,0-8.6,0-12.9,0C367,721.3,367,719.8,366.9,719L366.9,719z"/>
	<path class="st4" d="M399.2,719.1c1,0,3-0.1,4-0.1c3.9,7,7.7,14,11.7,21c3.9-7,7.9-14,11.7-21c1,0,3,0,4,0.1
		c-4.3,8.1-9.3,15.8-13.6,23.9c-0.8,4.9,0,10-0.4,15c-1.1,0-2.3-0.1-3.4-0.1c-0.2-4.8,0.2-9.7-0.2-14.4
		C408.8,735.2,403.7,727.3,399.2,719.1L399.2,719.1z"/>
	<path class="st4" d="M545.7,719c8.2,0,16.3-0.1,24.5,0.1c-0.2,0.7-0.5,2.2-0.7,2.9c-6.7,0.3-13.4,0-20.2,0.1c-0.1,4.8,0,9.5,0,14.3
		c6,0,12,0,18,0c0,0.8-0.1,2.3-0.1,3c-6,0-11.9,0-17.9,0c-0.1,5.2-0.1,10.4,0,15.6c6.9,0,13.9,0,20.8,0c0,0.7,0,2.2,0,2.9
		c-8.2,0-16.3,0-24.4,0C545.6,745,545.6,732,545.7,719L545.7,719z"/>
	<path class="st4" d="M645.7,719c8.2,0,16.3-0.1,24.4,0c-0.1,0.8-0.3,2.2-0.4,3c-6.8,0-13.6,0-20.4,0c-0.1,4.7,0,9.5-0.1,14.2
		c6,0,12,0,18,0c0,0.8-0.1,2.3-0.1,3c-6,0-11.9,0-17.9,0c-0.1,5.2-0.1,10.4,0,15.6c6.9,0,13.9,0,20.8,0c0,0.7,0,2.2,0,2.9
		c-8.1,0-16.3,0-24.4,0C645.6,745,645.6,732,645.7,719L645.7,719z"/>
	<path class="st4" d="M676.6,719c0.9,0,2.6,0,3.5,0c0.1,12,0,24,0,36c6.4,0,12.8,0,19.2,0c0,0.7,0,2.2,0,3c-7.6,0-15.2,0-22.8,0
		C676.6,745,676.6,732,676.6,719L676.6,719z"/>
	<path class="st4" d="M705.4,719c8,0,16-0.1,24.1,0.1c0.1,0.7,0.2,2.2,0.2,3c-6.9,0.1-13.8,0-20.7,0c-0.1,4.8,0,9.5,0,14.3
		c6,0,12,0,18,0c0,0.7,0,2.2,0,2.9c-5.9,0.3-11.9-0.1-17.8,0.2c-0.5,5.2-0.1,10.4-0.2,15.5c6.9,0.1,13.7-0.2,20.6,0.1
		c0.1,0.7,0.2,2.1,0.3,2.8c-8.2,0.2-16.3,0.1-24.5,0.1C705.4,745,705.4,732,705.4,719L705.4,719z"/>
	<path class="st4" d="M732.1,719.1c1,0,3-0.1,4-0.1c4,7,7.9,14,11.7,21.1c4.1-7,7.8-14.1,11.9-21.1c1,0,2.9,0.1,3.9,0.1
		c-4.5,7.9-9.2,15.6-13.5,23.5c-1,5-0.1,10.2-0.5,15.3c-1.2,0-2.4,0-3.6,0c-0.4-5.1,0.6-10.4-0.5-15.4
		C741.2,734.6,736.5,726.9,732.1,719.1L732.1,719.1z"/>
	<path class="st4" d="M70.1,741.3c2.7-1.3,5.5-3,6.7-5.8c3-5.7,0.2-13.7-6.1-15.6c-6-1.8-12.3-0.5-18.5-1c-0.4,13,0,25.9-0.2,38.9
		c0.9,0,2.6,0.1,3.4,0.2c0-5.4,0-10.7,0-16.1c3.7,0,7.4,0,11,0c3.2,5.3,6.2,10.6,9.3,16c1,0,3,0,4,0.1
		C76.7,752.3,73.3,746.8,70.1,741.3z M55.5,738.8c0-5.6-0.1-11.2,0-16.7c4.9,0.3,10.1-0.8,14.7,1.1c5.8,2.8,5.5,12.4-0.4,14.9
		C65.2,739.5,60.3,738.6,55.5,738.8z"/>
	<path class="st4" d="M594.7,741.5c2.2-1.4,4.8-2.7,6.2-5.1c3.4-5.4,1.5-13.8-4.7-16.1c-6.2-2.3-13.1-0.9-19.5-1.2c0,13,0,26,0,38.9
		c0.9,0,2.6,0,3.4,0c0-5.3,0-10.7,0-16c3.7-0.1,7.4-0.1,11.1-0.1c3.3,5.3,6.3,10.8,9.5,16.1c1.3-0.1,2.6-0.2,3.9-0.2
		C601.2,752.3,598,746.8,594.7,741.5z M580.1,738.8c0-5.6,0-11.1,0-16.7c5,0.3,10.2-0.9,14.9,1.2c5.9,2.9,5.1,13.2-1.3,15
		C589.2,739.3,584.6,738.7,580.1,738.8z"/>
	<path class="st4" d="M246.3,741.4c3-1.5,6.1-3.5,7.2-6.9c2.2-5.4-0.4-12.4-6.1-14.4c-6.2-2-12.8-0.8-19.1-1.1c-0.1,13,0,26,0,39
		c0.8,0,2.5-0.1,3.4-0.1c0-5.3,0-10.6,0-15.9c3.7-0.1,7.5-0.1,11.2,0c2.9,5.3,6.2,10.4,9,15.8c1,0,3,0.1,4,0.2
		C253,752.3,249.6,746.8,246.3,741.4z M231.7,738.8c0-5.6,0-11.1,0-16.7c4.9,0.2,10-0.8,14.6,1c6.1,2.7,5.7,12.8-0.6,15
		C241.2,739.4,236.4,738.6,231.7,738.8z"/>
	<path class="st4" d="M166.1,718.9c-0.8,0-2.4,0.1-3.2,0.2c-4.8,13-9.9,25.8-14.6,38.8c0.9,0,2.8,0,3.7,0c1.3-3.6,2.6-7.1,3.9-10.7
		c5.8-0.1,11.5,0,17.3-0.1c1.6,3.5,2.5,7.3,4.3,10.7c0.9,0,2.6,0.1,3.4,0.1C176.1,744.9,171.1,731.9,166.1,718.9z M157,744.1
		c2.6-6.8,5-13.7,7.6-20.6c2.5,6.9,5.2,13.6,7.4,20.6C167,744.1,162,744.1,157,744.1z"/>
	<path class="st4" d="M307.9,719c-0.8,0-2.5,0-3.3,0c-4.9,13-9.9,25.9-14.7,38.9c1,0,2.8-0.1,3.8-0.2c1.1-3.6,2.4-7.2,3.9-10.7
		c5.8,0,11.5,0,17.3,0c1.3,3.5,2.7,7.1,4,10.7c0.9,0,2.7,0.1,3.6,0.1C317.9,744.9,312.7,732,307.9,719z M298.8,744.1
		c2.2-7,5-13.7,7.4-20.6c2.6,6.9,5,13.8,7.6,20.6C308.8,744.1,303.8,744.1,298.8,744.1z"/>
	<path class="st4" d="M484.2,724.1c-9.5-7.1-24.9-5-31.6,5.1c-6,9.3-6.8,22-1.5,31.8c5.3,9.2,18.2,11.4,27.2,6.7
		c-0.2-0.5-0.5-1.5-0.6-2c-5.8,1.8-12.5,2.9-18-0.4c-5.8-3-8.7-9.7-9-15.9c-0.6-7.8,1.2-16.4,7.2-22c5.6-5.3,14.4-6,21.3-3.3
		c5.7,2.3,8.8,8.4,9.2,14.3c0.3,4.7,0.5,9.8-1.9,14.1c-1.1,2.1-3.3,3.9-5.8,3.6c-2.3,0.1-3.8-2.4-3.7-4.6c0-5.8,1.1-11.5,1.3-17.3
		c-3.1-2.3-7.2-3.8-10.9-2c-6.3,3.1-8.4,10.8-8.1,17.3c-0.1,3.5,1.4,7.8,5.2,8.7c3.9,1.2,7.6-1.3,9.7-4.5c1.1,3.7,5.2,5.8,8.8,4.4
		c5.5-1.4,7.7-7.7,8.1-12.8C491.8,737.8,490.4,729.2,484.2,724.1z M474,749.8c-1.1,3.8-5.7,7.9-9.5,5c-2.5-2.7-2.3-6.9-1.7-10.3
		c0.8-3.8,2.2-8.1,6-9.9c2.1-1.3,4.5-0.3,6.7,0.4C474.8,740,474.9,745,474,749.8z"/>
	<path class="st4" d="M531.2,737.7c7-2.9,7.3-14.1,0.4-17.2c-6.1-2.7-12.9-1.1-19.3-1.5c-0.1,13,0,26,0,38.9
		c5.2,0,10.5,0.2,15.7-0.1c4.6-0.2,9-3.6,9.8-8.2C539.1,744.6,536.1,739.2,531.2,737.7z M516,722c4.4,0.2,9-0.5,13.2,0.9
		c5.4,1.9,5.2,11-0.3,12.7c-4.2,1.3-8.7,0.5-13,0.7C516,731.5,515.9,726.8,516,722z M532.2,752.7c-4.6,3.7-10.9,1.7-16.2,2.2
		c-0.1-5.2-0.1-10.4,0-15.6c4.7,0.2,9.5-0.6,14,0.7C535.1,741.9,536.2,749.3,532.2,752.7z"/>
</g>
</svg>
